<svg height="496pt" viewBox="0 0 496 496" width="496pt" xmlns="http://www.w3.org/2000/svg" xmlns:xlink="http://www.w3.org/1999/xlink"><linearGradient id="a" gradientUnits="userSpaceOnUse" x1="248" x2="248" y1="496" y2="0"><stop offset="0" stop-color="#9f2fff"/><stop offset="1" stop-color="#0bb1d3"/></linearGradient><path d="m152 192h56v16h-56c-21.65625 0-41.695312 10.863281-53.601562 29.0625l-13.390626-8.757812c14.871094-22.730469 39.921876-36.304688 66.992188-36.304688zm72 16h16v-16h-16zm0 240v16c74.992188 0 136-61.007812 136-136h-16c0 66.167969-53.832031 120-120 120zm-32 16h16v-16h-16zm61.367188-361.753906c44.375-35.484375 97.839843-54.246094 154.632812-54.246094v-16c-59.59375 0-118.054688 20.511719-164.625 57.753906zm-44.40625 20.488281 12.0625 10.511719c4.671874-5.359375 9.625-10.574219 14.71875-15.503906l-11.117188-11.503907c-5.425781 5.25-10.6875 10.800781-15.664062 16.496094zm287.039062-34.734375c0 87.28125-38.160156 169.265625-104.726562 225.703125.398437 4.722656.726562 9.472656.726562 14.296875 0 92.640625-75.359375 168-168 168h-88c-9.558594 0-17.769531-5.664062-21.625-13.777344l-3.894531 3.503906c-7.359375 6.625-16.863281 10.273438-26.761719 10.273438h-43.71875c-22.054688 0-40-17.945312-40-40v-72h50.390625l26.183594-72h-36.574219c-8.824219 0-16-7.175781-16-16v-16c0-8.824219 7.175781-16 16-16h.40625c3.96875-55.71875 48.792969-100.191406 104.648438-103.648438 51.105468-98.992187 151.371093-160.351562 262.945312-160.351562 48.519531 0 88 39.480469 88 88zm-464 360h-16v8c0 10.414062 6.703125 19.207031 16 22.519531zm0-48h-16v32h16zm132-104c28.671875 0 52 23.328125 52 52s-23.328125 52-52 52h-36v16h36c37.496094 0 68-30.503906 68-68s-30.503906-68-68-68h-124v16zm84 52c0 3.910156-.359375 7.726562-.878906 11.496094 27.519531-3.511719 48.878906-27.03125 48.878906-55.496094 0-30.878906-25.121094-56-56-56-17.742188 0-34.046875 8.34375-44.527344 22.167969 5.078125 2.0625 9.910156 4.601562 14.449219 7.574219 7.503906-8.589844 18.367187-13.742188 30.078125-13.742188 22.054688 0 40 17.945312 40 40 0 19.398438-13.886719 35.59375-32.238281 39.214844.085937 1.59375.238281 3.167968.238281 4.785156zm16-44c0-13.230469-10.769531-24-24-24-6.800781 0-13.136719 2.871094-17.625 7.734375 10.976562 10.632813 19.007812 24.234375 22.914062 39.488281 10.910157-2.589844 18.710938-11.984375 18.710938-23.222656zm-136 128v16.441406l18.265625-16.441406zm-64 16h-16v32h16zm0-48h-16v32h16zm48 48h-32v32h3.71875c5.9375 0 11.640625-2.183594 16.058594-6.167969l12.222656-11zm0-48h-32v32h32zm32-16h20c19.847656 0 36-16.152344 36-36s-16.152344-36-36-36h-70.390625l-26.183594 72zm232-56c0-83.816406-68.183594-152-152-152h-72c-50.230469 0-91.511719 38.808594-95.59375 88h107.59375c5.246094 0 10.367188.542969 15.351562 1.472656 13.160157-20.730468 35.792969-33.472656 60.648438-33.472656 39.695312 0 72 32.304688 72 72 0 38.632812-30.617188 70.167969-68.847656 71.839844-10.824219 30.679687-38.929688 53.207031-72.609375 55.832031l-42.542969 38.289063v2.039062c0 4.40625 3.59375 8 8 8h88c83.816406 0 152-68.183594 152-152zm104-240c0-39.695312-32.304688-72-72-72-102.609375 0-195.070312 54.902344-244.566406 144h60.566406c29.039062 0 56.382812 7.414062 80.238281 20.449219l16.449219-16.449219-22.34375-22.34375 11.3125-11.3125 22.34375 22.34375 12.6875-12.6875-22.34375-22.34375 11.3125-11.3125 22.34375 22.34375 12.6875-12.6875-22.34375-22.34375 11.3125-11.3125 22.34375 22.34375 12.6875-12.6875-22.34375-22.34375 11.3125-11.3125 22.34375 22.34375 22.34375-22.34375 11.3125 11.3125-22.34375 22.34375 22.34375 22.34375-11.3125 11.3125-22.34375-22.34375-12.6875 12.6875 22.34375 22.34375-11.3125 11.3125-22.34375-22.34375-12.6875 12.6875 22.34375 22.34375-11.3125 11.3125-22.34375-22.34375-12.6875 12.6875 22.34375 22.34375-11.3125 11.3125-22.34375-22.34375-13.726562 13.726562c35.695312 24.289063 61.566406 61.945313 70.390624 105.722657 58.199219-53.082031 91.335938-127.632813 91.335938-206.761719zm0 0" fill="url(#a)"/></svg>